<?xml version="1.0" encoding="UTF-8" standalone="no"?>
<svg
   xmlns:dc="http://purl.org/dc/elements/1.1/"
   xmlns:cc="http://creativecommons.org/ns#"
   xmlns:rdf="http://www.w3.org/1999/02/22-rdf-syntax-ns#"
   xmlns:svg="http://www.w3.org/2000/svg"
   xmlns="http://www.w3.org/2000/svg"
   xmlns:sodipodi="http://sodipodi.sourceforge.net/DTD/sodipodi-0.dtd"
   xmlns:inkscape="http://www.inkscape.org/namespaces/inkscape"
   id="generated_logo_1"
   viewBox="0 0 249.21039 65"
   version="1.1"
   sodipodi:docname="logo_transparent.svg"
   width="249.21039"
   height="65">
  <metadata
     id="metadata40">
    <rdf:RDF>
      <cc:Work
         rdf:about="">
        <dc:format>image/svg+xml</dc:format>
        <dc:type
           rdf:resource="http://purl.org/dc/dcmitype/StillImage" />
      </cc:Work>
    </rdf:RDF>
  </metadata>
  <defs
     id="defs38" />
  <sodipodi:namedview
     pagecolor="#ffffff"
     bordercolor="#666666"
     borderopacity="1"
     objecttolerance="10"
     gridtolerance="10"
     guidetolerance="10"
     inkscape:pageopacity="0"
     inkscape:pageshadow="2"
     inkscape:window-width="640"
     inkscape:window-height="480"
     id="namedview36" />
  <style
     type="text/css"
     class="styleimportlogofontmain"
     id="style2">@import url(&quot;https://fonts.googleapis.com/css2?family=Lobster:wght@400&quot;);#generated_logo_1 .maintypo { font-family: Lobster; font-weight: 400; }</style>
  <style
     type="text/css"
     class="styleimportlogofontsub"
     id="style4">@import url(&quot;https://fonts.googleapis.com/css2?family=Oswald:wght@300;400;500;700&quot;);#generated_logo_1 .subtypo { font-family: Oswald; font-weight: 300; }</style>
  <style
     type="text/css"
     class="styleimportlogopos"
     id="style6" />
  <g
     id="logo-elements"
     transform="translate(32.5,32.5)"
     transform-box="stroke-box">
    <g
       id="iconcontainer"
       transform-origin="center"
       transform-box="fill-box">
      <g
         class="iconBGGrpM"
         id="g10">
        <g
           class="iconBGGrp"
           transform="matrix(0.1,0,0,0.1,-50,-50)"
           id="g8" />
      </g>
      <g
         class="iconGrpM"
         transform="scale(0.65)"
         id="g22">
        <g
           class="iconGrp"
           transform="matrix(0.1,0,0,0.1,-50,-50)"
           id="g20">
          <g
             class="lg_icon"
             id="lg_icon_105"
             stroke="none"
             stroke-width="1"
             fill="none"
             fill-rule="evenodd">
            <g
               id="0105">
              <path
                 id="FRAME"
                 style="fill:none"
                 d="M 0,0 V 1000 H 1000 V 0 Z" />
              <g
                 id="Icon"
                 transform="translate(200,199.9997)"
                 fill="#000000">
                <path
                   id="Fill-1"
                   d="M 560.0001,40.001 V 160 h 40 V 0 h -160 v 40.001 z" />
                <path
                   id="Fill-2"
                   d="M 40,160 V 40.001 H 160 V 0 H 0 v 160 z" />
                <path
                   id="Fill-3"
                   d="m 160,600.0001 v -39.999 H 40 V 440.0001 H 0 v 160 z" />
                <path
                   id="Fill-4"
                   d="m 439.9998,560.0011 v 39.999 h 160.001 v -160 h -40.001 v 120.001 z" />
              </g>
            </g>
          </g>
        </g>
      </g>
    </g>
    <g
       id="textlines">
      <g
         id="einsg"
         transform="translate(-26,15)">
        <g
           aria-label="Instaclone"
           id="eins"
           style="text-rendering:geometricPrecision">
          <path
             d="m 83.365,-28.765 q -2.345,0.945 -3.64,2.905 -1.26,1.925 -1.26,4.725 0,1.295 0.245,1.82 0.245,0.49 0.245,0.56 -1.89,0 -2.835,-0.77 -0.91,-0.805 -0.91,-2.625 0,-2.24 1.82,-4.34 1.855,-2.135 4.725,-3.43 2.87,-1.33 5.74,-1.33 0.49,0 1.4,0.07 L 83.33,-5 h -5.04 z"
             style="font-weight:400;font-size:35px;font-family:Lobster;letter-spacing:3;fill:#000000"
             id="path47" />
          <path
             d="m 103.76,-4.79 q -2.135,0 -3.15,-1.12 -0.98,-1.155 -0.98,-2.835 0,-0.735 0.175,-1.645 0.175,-0.945 0.35,-1.82 0.21,-0.875 0.28,-1.12 0.28,-1.225 0.525,-2.415 0.245,-1.19 0.245,-1.925 0,-1.785 -1.26,-1.785 -0.91,0 -1.61,0.91 -0.7,0.875 -1.12,2.31 L 94.835,-5 h -5.04 l 3.71,-17.5 h 5.04 l -0.385,1.82 q 1.75,-1.96 4.095,-1.96 1.785,0 2.835,0.98 1.05,0.98 1.05,2.975 0,1.015 -0.245,2.275 -0.245,1.225 -0.7,3.01 -0.28,1.085 -0.525,2.135 -0.21,1.015 -0.21,1.61 0,0.7 0.315,1.085 0.315,0.385 1.085,0.385 1.05,0 1.68,-0.735 0.63,-0.77 1.26,-2.345 h 1.47 q -1.295,3.85 -3.01,5.18 -1.68,1.295 -3.5,1.295 z"
             style="font-weight:400;font-size:35px;font-family:Lobster;letter-spacing:3;fill:#000000"
             id="path49" />
          <path
             d="m 115.82008,-4.79 q -1.68,0 -2.835,-0.63 -1.155,-0.665 -1.715,-1.68 -0.56,-1.05 -0.56,-2.17 0,-1.155 0.56,-1.995 0.525,-0.875 1.295,-1.26 1.365,-2.45 2.38,-4.935 1.015,-2.52 1.925,-5.425 l 5.18,-0.7 q 0.175,4.48 0.595,9.695 0.175,2.1 0.175,3.045 0,0.805 -0.14,1.33 1.645,-0.945 2.52,-1.75 h 1.47 q -2.24,2.59 -5.355,4.375 -1.015,1.085 -2.52,1.61 -1.47,0.49 -2.975,0.49 z m -1.12,-2.765 q 1.295,0 2.17,-0.77 0.875,-0.77 0.875,-2.485 0,-1.05 -0.21,-2.94 -0.35,-3.99 -0.455,-5.355 -0.84,2.765 -2.835,6.615 0.805,0.42 0.805,1.225 0,0.665 -0.455,1.19 -0.42,0.525 -1.085,0.525 -0.735,0 -0.945,-0.455 0,1.26 0.49,1.855 0.525,0.595 1.645,0.595 z"
             style="font-weight:400;font-size:35px;font-family:Lobster;letter-spacing:3;fill:#000000"
             id="path51" />
          <path
             d="m 131.69352,-4.79 q -1.68,0 -2.73,-1.05 -1.015,-1.05 -1.015,-3.15 0,-0.875 0.28,-2.275 l 2.1,-9.835 h -1.155 l 0.28,-1.4 h 1.155 l 1.05,-4.83 5.18,-0.7 -1.19,5.53 h 2.1 l -0.28,1.4 h -2.1 l -2.24,10.5 q -0.14,0.525 -0.14,1.12 0,0.7 0.315,1.015 0.35,0.28 1.12,0.28 1.015,0 1.89,-0.84 0.875,-0.875 1.26,-2.24 h 1.47 q -1.295,3.78 -3.325,5.145 -2.03,1.33 -4.025,1.33 z"
             style="font-weight:400;font-size:35px;font-family:Lobster;letter-spacing:3;fill:#000000"
             id="path53" />
          <path
             d="m 144.79375,-4.79 q -1.995,0 -3.325,-1.365 -1.33,-1.365 -1.33,-4.27 0,-2.59 1.015,-5.425 1.05,-2.87 3.08,-4.83 2.065,-1.995 4.9,-1.995 1.435,0 2.135,0.49 0.7,0.49 0.7,1.295 v 0.245 l 0.385,-1.855 h 5.04 l -2.52,11.9 q -0.14,0.525 -0.14,1.12 0,1.505 1.435,1.505 0.98,0 1.68,-0.91 0.735,-0.91 1.155,-2.38 h 1.47 q -1.295,3.78 -3.22,5.145 -1.89,1.33 -3.815,1.33 -1.47,0 -2.38,-0.805 -0.875,-0.84 -1.05,-2.415 -1.015,1.435 -2.275,2.345 -1.225,0.875 -2.94,0.875 z m 2.275,-3.395 q 0.875,0 1.715,-0.805 0.875,-0.84 1.19,-2.275 l 1.68,-7.91 q 0,-0.455 -0.35,-0.875 -0.35,-0.455 -1.085,-0.455 -1.4,0 -2.52,1.645 -1.12,1.61 -1.75,3.92 -0.63,2.275 -0.63,4.025 0,1.75 0.49,2.24 0.525,0.49 1.26,0.49 z"
             style="font-weight:400;font-size:35px;font-family:Lobster;letter-spacing:3;fill:#000000"
             id="path55" />
          <path
             d="m 166.98742,-4.79 q -2.59,0 -4.025,-1.33 -1.435,-1.365 -1.435,-4.235 0,-2.415 0.945,-5.32 0.98,-2.905 3.08,-5.005 2.135,-2.135 5.39,-2.135 2.1,0 2.975,0.91 0.91,0.91 0.91,2.31 0,1.225 -0.525,1.89 -0.525,0.665 -1.33,0.665 -0.595,0 -1.225,-0.42 0.42,-1.155 0.42,-2.065 0,-0.665 -0.245,-1.05 -0.245,-0.385 -0.735,-0.385 -1.05,0 -2.1,1.715 -1.05,1.715 -1.715,4.165 -0.665,2.45 -0.665,4.41 0,1.715 0.595,2.345 0.595,0.595 1.925,0.595 1.89,0 3.22,-0.875 1.365,-0.875 2.975,-2.66 h 1.19 q -3.885,6.475 -9.625,6.475 z"
             style="font-weight:400;font-size:35px;font-family:Lobster;letter-spacing:3;fill:#000000"
             id="path57" />
          <path
             d="m 181.91422,-4.79 q -1.68,0 -2.73,-1.05 -1.015,-1.05 -1.015,-3.15 0,-0.875 0.28,-2.275 l 3.745,-17.535 5.18,-0.7 -4.025,18.9 q -0.14,0.525 -0.14,1.12 0,0.7 0.315,1.015 0.35,0.28 1.12,0.28 1.015,0 1.89,-0.84 0.875,-0.875 1.26,-2.24 h 1.47 q -1.295,3.78 -3.325,5.145 -2.03,1.33 -4.025,1.33 z"
             style="font-weight:400;font-size:35px;font-family:Lobster;letter-spacing:3;fill:#000000"
             id="path59" />
          <path
             d="m 195.92445,-4.86 q -2.59,0 -4.095,-1.33 -1.505,-1.33 -1.505,-4.2 0,-2.38 0.98,-5.285 0.98,-2.905 3.15,-5.005 2.17,-2.135 5.46,-2.135 4.48,0 4.48,5.6 v 0.035 q 0.105,0.035 0.385,0.035 1.155,0 2.66,-0.595 1.505,-0.63 2.73,-1.505 l 0.315,0.945 q -1.015,1.085 -2.66,1.855 -1.61,0.735 -3.535,1.05 -0.28,3.185 -1.435,5.565 -1.155,2.38 -2.975,3.675 -1.82,1.295 -3.955,1.295 z m 1.4,-3.15 q 0.84,0 1.68,-0.945 0.84,-0.98 1.47,-2.625 0.63,-1.68 0.91,-3.71 -0.945,-0.21 -0.945,-1.47 0,-1.435 1.085,-1.89 -0.07,-1.155 -0.35,-1.575 -0.28,-0.455 -0.98,-0.455 -1.155,0 -2.24,1.68 -1.085,1.68 -1.75,4.025 -0.665,2.345 -0.665,4.13 0,1.68 0.385,2.275 0.385,0.56 1.4,0.56 z"
             style="font-weight:400;font-size:35px;font-family:Lobster;letter-spacing:3;fill:#000000"
             id="path61" />
          <path
             d="m 221.83031,-4.79 q -2.135,0 -3.15,-1.12 -0.98,-1.155 -0.98,-2.835 0,-0.735 0.175,-1.645 0.175,-0.945 0.35,-1.82 0.21,-0.875 0.28,-1.12 0.28,-1.225 0.525,-2.415 0.245,-1.19 0.245,-1.925 0,-1.785 -1.26,-1.785 -0.91,0 -1.61,0.91 -0.7,0.875 -1.12,2.31 l -2.38,11.235 h -5.04 l 3.71,-17.5 h 5.04 l -0.385,1.82 q 1.75,-1.96 4.095,-1.96 1.785,0 2.835,0.98 1.05,0.98 1.05,2.975 0,1.015 -0.245,2.275 -0.245,1.225 -0.7,3.01 -0.28,1.085 -0.525,2.135 -0.21,1.015 -0.21,1.61 0,0.7 0.315,1.085 0.315,0.385 1.085,0.385 1.05,0 1.68,-0.735 0.63,-0.77 1.26,-2.345 h 1.47 q -1.295,3.85 -3.01,5.18 -1.68,1.295 -3.5,1.295 z"
             style="font-weight:400;font-size:35px;font-family:Lobster;letter-spacing:3;fill:#000000"
             id="path63" />
          <path
             d="m 234.83539,-4.79 q -2.555,0 -3.99,-1.33 -1.435,-1.365 -1.435,-4.235 0,-2.415 0.945,-5.32 0.945,-2.905 3.08,-5.005 2.135,-2.135 5.425,-2.135 3.85,0 3.85,3.36 0,1.96 -1.12,3.605 -1.12,1.645 -2.975,2.66 -1.855,0.98 -3.955,1.12 -0.07,0.77 -0.07,1.05 0,2.905 2.17,2.905 0.98,0 2.1,-0.525 1.12,-0.525 2.03,-1.33 -0.945,5.18 -6.055,5.18 z m 0.07,-8.96 q 1.33,-0.035 2.485,-0.875 1.19,-0.84 1.89,-2.135 0.735,-1.33 0.735,-2.765 0,-1.435 -0.875,-1.435 -1.225,0 -2.45,2.24 -1.19,2.205 -1.785,4.97 z"
             style="font-weight:400;font-size:35px;font-family:Lobster;letter-spacing:3;fill:#000000"
             id="path65" />
        </g>
      </g>
      <g
         id="zweig"
         transform="translate(-10,5)">
        <g
           id="zwei"
           style="dominant-baseline:text-before-edge;text-rendering:geometricPrecision" />
      </g>
    </g>
  </g>
</svg>
